<svg xmlns="http://www.w3.org/2000/svg" viewBox="0 0 512 512" role="img" aria-label="風呂は命の洗濯 favicon">
  <rect width="512" height="512" fill="#fdfcf9"/>
  <circle cx="256" cy="256" r="238" fill="#8d7ab0"/>
  <path d="M98 184h316v36H98z" fill="#7c68a2"/>
  <path d="M86 220h340v36H86z" fill="#f8efe7"/>
  <path d="M112 256h288v40H112z" fill="#7c68a2"/>
  <path d="M128 296h256v84H128z" fill="#f8efe7"/>
  <path d="M150 380h212v34H150z" fill="#e8d8d0"/>
  <path d="M112 236h288v28H112z" fill="#b49ed1"/>
  <path d="M132 258h54v26h-54zM222 258h68v26h-68zM326 258h50v26h-50z" fill="#efe5fb"/>
  <path d="M211 185h90v92h-90z" fill="#fff5e8"/>
  <path d="M226 154h60v48h-60z" fill="#fff5e8"/>
  <path d="M241 132h30v30h-30z" fill="#fff5e8"/>
  <path d="M225 228h12v12h-12zM275 228h12v12h-12zM245 250h22v10h-22z" fill="#3a314c"/>
  <path d="M203 240h28v18h-28zM281 240h28v18h-28z" fill="#f3b7a7"/>
  <path d="M250 170h14v14h-14zM235 184h14v14h-14zM265 184h14v14h-14z" fill="#f9dc76"/>
  <path d="M154 126h18v62h-18zM172 108h18v62h-18zM190 92h18v62h-18zM184 74h18v26h-18z" fill="#efe5fb" opacity="0.88"/>
  <path d="M244 104h18v76h-18zM262 86h18v62h-18zM280 70h18v44h-18z" fill="#efe5fb" opacity="0.88"/>
  <path d="M334 126h18v62h-18zM352 108h18v62h-18zM370 92h18v62h-18zM364 74h18v26h-18z" fill="#efe5fb" opacity="0.88"/>
  <path d="M76 172h22v22H76zM94 154h22v22H94zM414 160h22v22h-22zM396 178h22v22h-22zM390 92h14v14h-14zM96 94h14v14H96zM70 246h12v12H70zM434 244h12v12h-12z" fill="#f8dac5"/>
  <path d="M116 402h28v40h-28zM368 402h28v40h-28z" fill="#c39452"/>
  <path d="M122 394h18v18h-18zM374 394h18v18h-18z" fill="#f3d58d"/>
  <path d="M64 256h22v116H64zM426 256h22v116h-22z" fill="#6f5b97"/>
  <path d="M46 224h18v138H46zM448 224h18v138h-18z" fill="#6f5b97"/>
  <path d="M256 18h86v18h-86zM342 36h42v18h-42zM384 54h34v18h-34zM418 72h28v18h-28zM446 90h22v22h-22zM468 112h18v36h-18zM486 148h16v80h-16zM486 284h16v80h-16zM468 364h18v36h-18zM446 400h22v22h-22zM418 422h28v18h-28zM384 440h34v18h-34zM342 458h42v18h-42zM256 476h86v18h-86zM170 18h86v18h-86zM128 36h42v18h-42zM94 54h34v18H94zM66 72h28v18H66zM44 90h22v22H44zM26 112h18v36H26zM10 148h16v80H10zM10 284h16v80H10zM26 364h18v36H26zM44 400h22v22H44zM66 422h28v18H66zM94 440h34v18H94zM128 458h42v18h-42zM170 476h86v18h-86z" fill="#6f5b97" opacity="0.8"/>
</svg>
