<svg xmlns="http://www.w3.org/2000/svg" viewBox="0 0 64 64" role="img" aria-label="風呂は命の洗濯 favicon">
  <rect width="64" height="64" rx="14" fill="#fdfcf9"/>
  <path d="M18 32h28a6 6 0 0 1 6 6v2c0 8-7 14-16 14h-8c-9 0-16-6-16-14v-2a6 6 0 0 1 6-6Z" fill="#5a4a78"/>
  <path d="M18 36h28a2 2 0 0 1 2 2v1H16v-1a2 2 0 0 1 2-2Z" fill="#fffdf8"/>
  <path d="M21 41h22" stroke="#fdfcf9" stroke-width="3" stroke-linecap="round"/>
  <path d="M23 25c-3-4 3-6 0-10M32 25c-3-4 3-6 0-10M41 25c-3-4 3-6 0-10" fill="none" stroke="#5a4a78" stroke-width="3" stroke-linecap="round"/>
  <circle cx="47" cy="32" r="5" fill="#dedbd4"/>
</svg>
